<svg xmlns="http://www.w3.org/2000/svg" viewBox="0 0 32 32" width="32" height="32">
  <defs>
    <linearGradient id="grad1" x1="0%" y1="0%" x2="100%" y2="100%">
      <stop offset="0%" style="stop-color:#3B82F6;stop-opacity:1" />
      <stop offset="100%" style="stop-color:#1E40AF;stop-opacity:1" />
    </linearGradient>
  </defs>
  
  <!-- Background circle -->
  <circle cx="16" cy="16" r="15" fill="url(#grad1)" stroke="#1E40AF" stroke-width="1"/>
  
  <!-- AI Brain/Neural Network -->
  <g fill="white" opacity="0.9">
    <!-- Central node -->
    <circle cx="16" cy="16" r="2"/>
    
    <!-- Neural connections -->
    <line x1="8" y1="8" x2="12" y2="12" stroke="white" stroke-width="1" opacity="0.7"/>
    <line x1="24" y1="8" x2="20" y2="12" stroke="white" stroke-width="1" opacity="0.7"/>
    <line x1="8" y1="24" x2="12" y2="20" stroke="white" stroke-width="1" opacity="0.7"/>
    <line x1="24" y1="24" x2="20" y2="20" stroke="white" stroke-width="1" opacity="0.7"/>
    
    <!-- Outer nodes -->
    <circle cx="8" cy="8" r="1"/>
    <circle cx="24" cy="8" r="1"/>
    <circle cx="8" cy="24" r="1"/>
    <circle cx="24" cy="24" r="1"/>
    
    <!-- Additional connections -->
    <line x1="12" y1="12" x2="16" y2="16" stroke="white" stroke-width="1" opacity="0.6"/>
    <line x1="20" y1="12" x2="16" y2="16" stroke="white" stroke-width="1" opacity="0.6"/>
    <line x1="12" y1="20" x2="16" y2="16" stroke="white" stroke-width="1" opacity="0.6"/>
    <line x1="20" y1="20" x2="16" y2="16" stroke="white" stroke-width="1" opacity="0.6"/>
  </g>
  
  <!-- Guardian Angel wings (subtle) -->
  <g fill="white" opacity="0.3">
    <path d="M4 12 Q8 8 12 12 Q8 16 4 12"/>
    <path d="M28 12 Q24 8 20 12 Q24 16 28 12"/>
  </g>
</svg> 